<svg width="1326" height="221" viewBox="0 0 1326 221" fill="none" xmlns="http://www.w3.org/2000/svg">
<path d="M249.658 51.1805L255.378 1.4741C255.506 0.361994 254.278 -0.394587 253.342 0.219424L213.603 26.2877L152.542 62.2795C152.058 62.565 151.807 63.1258 151.918 63.6769L160.631 107.017C160.72 107.459 160.577 107.917 160.251 108.229L128.099 139.098C127.84 139.347 127.693 139.691 127.693 140.051V218.797C127.693 220.058 129.293 220.601 130.061 219.601L151.375 191.841C151.552 191.611 151.648 191.328 151.648 191.037V174.551C151.648 173.406 153.006 172.804 153.854 173.572L161.951 180.908C162.478 181.385 163.288 181.36 163.784 180.851L185.729 158.3C186.614 157.39 185.83 155.877 184.576 156.075L175.376 157.53C175.089 157.575 174.796 157.525 174.541 157.386L165.971 152.739C164.901 152.159 165.12 150.563 166.307 150.292L200.969 142.376C201.184 142.327 201.384 142.225 201.549 142.079L224.133 122.122C225.044 121.317 224.474 119.813 223.259 119.813H209.725C209.427 119.813 209.137 119.712 208.904 119.527L196.623 109.765C195.693 109.026 196.137 107.53 197.32 107.418L226.111 104.684C226.512 104.646 226.874 104.427 227.093 104.089L243.486 78.8488C244.056 77.9706 243.426 76.8098 242.379 76.8098H226.952C225.767 76.8098 225.182 75.3686 226.032 74.5427L249.267 51.9766C249.485 51.7644 249.623 51.4831 249.658 51.1805Z" fill="url(#paint0_linear_342_65)"/>
<path d="M5.72862 51.1805L0.00924197 1.4741C-0.11872 0.361994 1.10868 -0.394587 2.04471 0.219424L41.7843 26.2877L102.845 62.2795C103.329 62.565 103.579 63.1258 103.469 63.6769L94.7559 107.017C94.667 107.459 94.8103 107.917 95.1359 108.229L127.288 139.098C127.547 139.347 127.693 139.691 127.693 140.051V218.797C127.693 220.058 126.094 220.601 125.326 219.601L104.012 191.841C103.835 191.611 103.739 191.328 103.739 191.037V174.551C103.739 173.406 102.381 172.804 101.532 173.572L93.4356 180.908C92.9089 181.385 92.0989 181.36 91.6033 180.851L69.6582 158.3C68.7729 157.39 69.5565 155.877 70.8104 156.075L80.0109 157.53C80.2976 157.575 80.5912 157.525 80.8463 157.386L89.4155 152.739C90.4855 152.159 90.2667 150.563 89.0801 150.292L54.4178 142.376C54.2025 142.327 54.003 142.225 53.8375 142.079L31.254 122.122C30.343 121.317 30.9124 119.813 32.1282 119.813H45.6619C45.9603 119.813 46.2498 119.712 46.4833 119.527L58.7634 109.765C59.6936 109.026 59.2497 107.53 58.0668 107.418L29.2757 104.684C28.8746 104.646 28.5128 104.427 28.2934 104.089L11.901 78.8488C11.3306 77.9706 11.9609 76.8098 13.0081 76.8098H28.4347C29.6201 76.8098 30.2047 75.3686 29.3544 74.5427L6.12032 51.9766C5.90183 51.7644 5.76344 51.4831 5.72862 51.1805Z" fill="url(#paint1_linear_342_65)"/>
<path d="M126.564 31.6707C126.944 30.3423 128.443 30.3423 128.823 31.6707L148.952 102.06C149.368 103.514 147.975 104.715 147.041 103.708L128.476 83.6911C128.026 83.2062 127.361 83.2062 126.911 83.6911L108.346 103.708C107.412 104.715 106.019 103.514 106.435 102.06L126.564 31.6707Z" fill="#F4F4F4"/>
<path d="M127.038 126.435C127.436 126.761 127.95 126.761 128.349 126.435L147.678 110.633C148.852 109.672 147.984 107.398 146.651 107.943L128.065 115.541C127.824 115.639 127.563 115.639 127.322 115.541L108.736 107.943C107.403 107.398 106.535 109.672 107.709 110.633L127.038 126.435Z" fill="#EEC762"/>
<path d="M306.585 149.712C315.773 134.125 324.961 118.374 334.231 102.541C344.076 85.8061 353.92 68.9888 363.764 52.2536H457.202L438.088 83.6732C425.537 83.6732 412.903 83.6732 400.106 83.6732C387.39 83.6732 374.757 83.6732 362.287 83.6732L369.589 95.2402C361.877 108.448 354.248 121.409 346.701 134.125C345.306 136.586 343.911 138.965 342.435 141.344C342.763 141.344 345.634 141.426 351.213 141.426C356.791 141.426 363.354 141.426 370.901 141.426C378.448 141.426 385.339 141.426 391.574 141.426C397.727 141.426 401.582 141.426 403.059 141.426L397.973 149.712L384.027 172.846H323.977L306.585 149.712Z" fill="#F4F4F4"/>
<path d="M562.946 52.2536L508.885 141.426L489.771 172.846H425.947L412.083 149.712L417.169 141.426L452.116 83.6732L471.23 52.2536C501.83 52.2536 532.429 52.2536 562.946 52.2536ZM476.235 141.426L511.264 83.6732H470.164L477.875 95.1582L449.819 141.426H476.235Z" fill="#F4F4F4"/>
<path d="M646.95 52.2536L660.814 75.3876L615.695 149.63L587.557 172.846H510.69C520.206 156.603 530.378 139.129 541.289 120.589C551.051 103.854 560.403 87.939 569.263 72.6804L552.61 52.2536C584.029 52.2536 615.531 52.2536 646.95 52.2536ZM622.996 83.8373V83.7552C615.777 83.7552 608.476 83.6732 601.257 83.6732C594.12 83.6732 586.9 83.6732 579.681 83.6732L586.983 95.2402C579.189 108.53 571.478 121.656 563.931 134.453C562.536 136.832 561.141 139.211 559.747 141.59C564.505 141.59 569.263 141.508 573.939 141.508C578.615 141.426 583.373 141.426 588.049 141.426L622.996 83.8373Z" fill="#F4F4F4"/>
<path d="M774.433 52.2536L755.401 83.6732H683.948L691.742 95.2402H718.239L698.551 127.316H662.701L671.643 141.426H720.372L715.286 149.712L701.504 172.518L701.34 172.846H644.982L627.672 149.712L632.758 141.426L686.82 52.2536H774.433Z" fill="#F4F4F4"/>
<path d="M881.654 52.2536L863.196 83.6732H849.086L856.387 95.2402C848.594 108.53 840.964 121.574 833.417 134.371C825.952 147.005 818.404 159.884 810.775 172.846L793.384 149.712L806.591 127.234C801.095 127.234 795.599 127.234 790.102 127.234C784.606 127.234 779.11 127.234 773.613 127.234C771.234 131.336 768.855 135.356 766.476 139.375C759.995 150.368 753.432 161.525 746.788 172.846L729.396 149.712C739.404 132.648 749.495 115.421 759.667 98.1114C768.691 82.7708 777.633 67.5122 786.575 52.2536H817.666L799.208 83.6732H785.098L792.399 95.2402C797.896 95.2402 803.392 95.2402 808.888 95.2402C814.385 95.2402 819.881 95.2402 825.377 95.2402L850.562 52.2536H881.654Z" fill="#F4F4F4"/>
<path d="M895.354 52.2536H988.71L970.334 83.6732H956.388L963.525 95.2402C955.978 108.038 948.431 120.917 940.883 133.715C933.172 146.758 925.543 159.802 917.831 172.846L900.522 149.712L913.648 127.234H880.751C879.439 129.449 878.126 131.746 876.814 133.961C869.266 146.758 861.637 159.72 853.926 172.846L836.534 149.712L836.616 149.63L895.354 52.2536ZM928.332 102.131L939.161 83.6732H906.264C904.132 87.3648 901.999 91.0564 899.784 94.6659C898.471 96.9629 897.076 99.2599 895.682 101.639L895.436 102.131H928.332Z" fill="#F4F4F4"/>
<path d="M1065.58 92.3689L1089.12 52.2536H1120.21C1108.48 72.1882 1096.83 92.0408 1085.1 111.975C1073.21 132.238 1061.23 152.583 1049.33 172.846C1019.88 172.846 990.515 172.846 961.064 172.846L943.673 149.712L960.982 120.179L966.068 111.565L1000.85 52.2536H1031.94L1013.48 83.6732H999.375L1006.68 95.2402C998.964 108.366 991.335 121.327 983.87 133.961C983.214 135.191 982.475 136.422 981.737 137.653L979.522 141.426C984.69 141.426 989.448 141.426 993.796 141.426C998.882 132.73 1003.97 124.117 1008.97 115.667C1012.99 108.858 1016.93 102.049 1020.95 95.2402H1051.88L1024.81 141.426C1029.97 141.426 1033.99 141.426 1036.7 141.508C1045.56 126.414 1054.42 111.401 1063.2 96.3887C1064.02 94.9941 1064.84 93.6815 1065.58 92.3689Z" fill="#F4F4F4"/>
<path d="M1224.32 52.2536C1216.93 64.641 1209.47 77.0283 1201.92 89.2516C1199.79 92.7791 1197.65 96.2246 1195.6 99.6701L1151.63 123.378L1188.63 172.846H1155.49L1121.53 123.46C1119.39 127.152 1117.18 130.844 1115.04 134.453C1107.58 147.169 1100.03 159.966 1092.48 172.846L1075.09 149.712C1084.2 134.125 1093.47 118.374 1102.74 102.541C1112.58 85.8061 1122.43 68.9888 1132.27 52.2536H1163.28L1144.91 83.6732H1130.8L1138.1 95.2402C1135.14 100.326 1132.19 105.331 1129.24 110.253L1171.65 87.2007L1192.4 52.2536H1224.32Z" fill="#F4F4F4"/>
<path d="M1235.23 52.2536H1325.14L1306.68 83.6732H1234.08L1243.84 95.6504H1299.71L1254.34 172.846H1191.42L1179.28 141.426H1240.31L1249.34 127.234H1212.42L1200.36 107.792L1235.23 52.2536Z" fill="#F4F4F4"/>
<defs>
<linearGradient id="paint0_linear_342_65" x1="662.569" y1="0" x2="662.569" y2="220.12" gradientUnits="userSpaceOnUse">
<stop offset="0.484375" stop-color="#EEC761"/>
<stop offset="0.802083" stop-color="#F35E5E"/>
<stop offset="1" stop-color="#EC4D85"/>
</linearGradient>
<linearGradient id="paint1_linear_342_65" x1="662.569" y1="-67.1132" x2="662.569" y2="220.12" gradientUnits="userSpaceOnUse">
<stop offset="0.46875" stop-color="#EFEFF0"/>
<stop offset="0.640625" stop-color="#ABEDEE"/>
<stop offset="1" stop-color="#79C3ED"/>
</linearGradient>
</defs>
</svg>
